<svg width="15" height="15" viewBox="0 0 15 15" fill="none" xmlns="http://www.w3.org/2000/svg">
<path d="M0 2.97894C-6.3469e-08 4.43094 0.572 6.21294 1.716 8.32494C2.838 10.4369 4.015 12.0979 5.247 13.3079C5.929 13.9899 6.556 14.3309 7.128 14.3309C7.458 14.3309 7.733 14.2319 7.953 14.0339C8.151 13.8359 8.327 13.6599 8.481 13.5059C8.613 13.3739 8.767 13.1759 8.943 12.9119C9.449 12.1639 9.856 11.5149 10.164 10.9649C10.45 10.4149 10.703 9.93095 10.923 9.51295C13.189 5.44295 14.322 2.80295 14.322 1.59295C14.322 0.976945 14.124 0.668945 13.728 0.668945C13.288 0.668945 12.551 1.54895 11.517 3.30895C10.483 5.06895 9.504 6.82895 8.58 8.58895C7.634 10.3709 7.051 11.2619 6.831 11.2619C6.369 11.2619 5.632 10.3599 4.62 8.55594C3.608 6.77395 2.937 5.32195 2.607 4.19994C2.475 3.78194 2.156 3.35295 1.65 2.91295C1.122 2.47294 0.715001 2.25294 0.429 2.25294C0.143 2.25294 2.11563e-08 2.49494 0 2.97894Z" fill="white"/>
</svg>
