<svg width="38" height="35" viewBox="0 0 38 35" fill="none" xmlns="http://www.w3.org/2000/svg">
<path d="M37.264 14.484C37.264 16.388 31.5293 17.9067 20.06 19.04C19.788 20.4 19.3347 22.6213 18.7 25.704C18.1107 28.7866 17.6347 31.008 17.272 32.368C16.9093 33.6827 16.4787 34.3173 15.98 34.272C15.3 34.272 14.62 33.8413 13.94 32.98C13.3053 32.0733 13.0107 31.1893 13.056 30.328C13.1013 29.4213 13.192 28.5373 13.328 27.676C13.5093 26.7693 13.736 25.5453 14.008 24.004C14.3253 22.4627 14.5973 20.944 14.824 19.448C10.9253 19.72 7.344 19.856 4.08 19.856C3.03733 19.856 2.08533 19.4253 1.224 18.564C0.408 17.7026 0 16.8413 0 15.98C0 15.0733 0.612 14.62 1.836 14.62C8.72667 14.62 13.2827 14.552 15.504 14.416C16.0933 9.74665 16.524 5.59865 16.796 1.97198C16.8413 0.657318 17.2947 -1.52588e-05 18.156 -1.52588e-05C18.9267 0.0453175 19.924 0.679984 21.148 1.90398C22.372 3.08265 22.9613 4.03465 22.916 4.75998C22.8253 6.30132 22.236 9.36132 21.148 13.94C28.1293 13.3506 32.0733 13.056 32.98 13.056C35.836 13.056 37.264 13.532 37.264 14.484Z" fill="#696BFF"/>
</svg>
